<?xml version="1.0" encoding="utf-8"?>
<!-- Generator: Adobe Illustrator 19.0.0, SVG Export Plug-In . SVG Version: 6.00 Build 0)  -->
<svg version="1.1" id="Layer_1" xmlns="http://www.w3.org/2000/svg" xmlns:xlink="http://www.w3.org/1999/xlink" x="0px" y="0px"
	 viewBox="0 0 500 500" style="enable-background:new 0 0 500 500;" xml:space="preserve">
<style type="text/css">
	.st0{opacity:0.54;fill:#313333;stroke:#000000;stroke-width:8;stroke-linecap:round;stroke-linejoin:round;stroke-miterlimit:10;}
	.st1{fill:#CCEBED;stroke:#000000;stroke-width:12;stroke-miterlimit:10;}
	.st2{fill:#FFFFFF;stroke:#000000;stroke-width:20;stroke-miterlimit:10;}
	.st3{fill:#B0C6C5;stroke:#000000;stroke-width:10;stroke-miterlimit:10;}
	.st4{fill:#809293;}
	.st5{opacity:0.54;fill:#475656;stroke:#000000;stroke-width:8;stroke-miterlimit:10;}
</style>
<path id="XMLID_469_" class="st0" d="M393,61c-64.5-22.3-140.8,53.7-213.5,126c-70.9,70.6-140,141.1-120.1,202.5
	c5,15.4,14.3,26.4,21.8,33.5c6.5-28.1,18.9-65.6,44.8-104.3c4.6-6.9,8.3-12.1,11.5-16.2c14-17.8,30.9-32.5,82.5-85.8
	c55.2-57.1,70.5-77.2,90.3-90.9c3.2-2.2,8.4-5.4,15.7-9.2c41-22,79.9-26.5,105.5-27C423.7,79.8,411.2,67.3,393,61z"/>
<circle id="XMLID_468_" class="st1" cx="254.7" cy="246.3" r="163.3"/>
<path id="XMLID_467_" class="st2" d="M254.7,246.3"/>
<path id="XMLID_8_" class="st3" d="M259.4,360.4c-11.8-5.6-28.8-15.6-45.2-33.5c-26.8-29.2-36.1-62.4-39.6-78
	c0.3-25.9,0.6-51.8,0.9-77.7c12.5-1.5,28.2-4.5,45.6-11c15.9-5.9,29.1-13.1,39.4-19.7c9.1,6.9,22.3,15.3,39.4,21.7
	c17.1,6.4,32.3,8.4,43.3,9c-0.1,25.3-0.2,50.5-0.3,75.8c-2.8,15.4-11.3,51.9-40.4,82.6C287,346,270.8,355.2,259.4,360.4z"/>
<path id="XMLID_293_" class="st4" d="M260.4,146.1c-0.3,69.6-0.6,139.1-0.9,208.7c-5.2-1.9-12.1-4.9-19.7-9.6
	c-2.2-1.4-12.3-7.3-23-18.9c-7-7.6-15.7-18.2-23.2-32.1c-8.6-16-12.4-30.7-15.5-41.6c0-25.8,0-51.7,0-77.5c3.6-0.5,7.2-1.1,11-1.8
	c18.5-3.5,32.1-8.4,35.2-9.5C234,160.1,246.6,154.6,260.4,146.1z"/>
<path id="XMLID_466_" class="st5" d="M65.7,405c4.9,7.7,13.2,18.2,26.3,25.5C160.8,469,283.1,374.9,345.7,306
	c15.2-16.7,127-139.8,88.1-210.8C427,82.8,417.2,74.9,409.7,70c-0.8,2.6-2.1,6.4-3.7,11c-8.8,25.3-36,103.1-108.3,179
	c-32.1,33.7-90.7,97.3-188,132C91.9,398.3,76.6,402.4,65.7,405z"/>
</svg>
